<svg xmlns="http://www.w3.org/2000/svg" width="680" height="360" viewBox="0 0 680 360">
<rect width="100%" height="100%" fill="#ffffff"/>
<text x="20" y="28" font-family="sans-serif" font-size="15" fill="#1c1917">Validation payment recall by adaptation round</text>
<rect x="20" y="44" width="14" height="14" fill="#0f766e"/>
<text x="40" y="56" font-family="sans-serif" font-size="12" fill="#1c1917">Frozen model</text>
<rect x="160" y="44" width="14" height="14" fill="#b45309"/>
<text x="180" y="56" font-family="sans-serif" font-size="12" fill="#1c1917">Retrained on analyst verdicts</text>
<rect x="68.0" y="269.3" width="28" height="42.7" fill="#0f766e"/>
<text x="68.0" y="263.3" font-family="sans-serif" font-size="11" fill="#1c1917">0.17</text>
<rect x="104.0" y="68.0" width="28" height="244.0" fill="#b45309"/>
<text x="104.0" y="62.0" font-family="sans-serif" font-size="11" fill="#1c1917">1.00</text>
<text x="68.0" y="332" font-family="sans-serif" font-size="12" fill="#1c1917">Round 1</text>
<rect x="262.7" y="287.6" width="28" height="24.4" fill="#0f766e"/>
<text x="262.7" y="281.6" font-family="sans-serif" font-size="11" fill="#1c1917">0.10</text>
<rect x="298.7" y="305.9" width="28" height="6.1" fill="#b45309"/>
<text x="298.7" y="299.9" font-family="sans-serif" font-size="11" fill="#1c1917">0.03</text>
<text x="262.7" y="332" font-family="sans-serif" font-size="12" fill="#1c1917">Round 2</text>
<rect x="457.3" y="299.8" width="28" height="12.2" fill="#0f766e"/>
<text x="457.3" y="293.8" font-family="sans-serif" font-size="11" fill="#1c1917">0.05</text>
<rect x="493.3" y="116.8" width="28" height="195.2" fill="#b45309"/>
<text x="493.3" y="110.8" font-family="sans-serif" font-size="11" fill="#1c1917">0.80</text>
<text x="457.3" y="332" font-family="sans-serif" font-size="12" fill="#1c1917">Round 3</text>
</svg>
