<svg xmlns="http://www.w3.org/2000/svg" width="1100" height="620" viewBox="0 0 1100 620">
<rect width="100%" height="100%" fill="#fbfaf7"/>
<defs><pattern id="fprHatch" width="6" height="6" patternUnits="userSpaceOnUse"><rect width="6" height="6" fill="#b23a48"/><path d="M0 6 L6 0" stroke="#fbfaf7" stroke-width="1.2"/></pattern></defs>
<style>text{font-family:Helvetica,Arial,sans-serif;fill:#1c1915}</style>
<text x="550.0" y="28" text-anchor="middle" font-size="18" font-weight="700">Validation metrics by model</text>
<text x="550.0" y="50" text-anchor="middle" font-size="12" fill="#4a453e">fast profile, mean over seeds 42, 7, 2026. Whiskers are the sample standard deviation.</text>
<rect x="52" y="62" width="12" height="12" fill="#1d4e89" stroke="#1c1915" stroke-width="0.4"/>
<text x="68" y="73" font-size="12">Precision</text>
<rect x="162" y="62" width="12" height="12" fill="#2f7d4a" stroke="#1c1915" stroke-width="0.4"/>
<text x="178" y="73" font-size="12">Recall</text>
<rect x="272" y="62" width="12" height="12" fill="#d08c1f" stroke="#1c1915" stroke-width="0.4"/>
<text x="288" y="73" font-size="12">F1</text>
<rect x="382" y="62" width="12" height="12" fill="url(#fprHatch)" stroke="#1c1915" stroke-width="0.4"/>
<text x="398" y="73" font-size="12">FPR (shorter is better)</text>
<text x="303.0" y="102" text-anchor="middle" font-size="14" font-weight="700">Payment level</text>
<line x1="52.0" y1="534" x2="546.0" y2="534" stroke="#1c1915" stroke-width="1"/>
<line x1="52.0" y1="534" x2="546.0" y2="534" stroke="#e4dfd6" stroke-width="1"/>
<text x="44.0" y="538" text-anchor="end" font-size="11">0.0</text>
<line x1="52.0" y1="324.0" x2="546.0" y2="324.0" stroke="#e4dfd6" stroke-width="1"/>
<text x="44.0" y="328.0" text-anchor="end" font-size="11">0.5</text>
<line x1="52.0" y1="114" x2="546.0" y2="114" stroke="#e4dfd6" stroke-width="1"/>
<text x="44.0" y="118" text-anchor="end" font-size="11">1.0</text>
<rect x="60.0" y="257.1" width="11" height="276.9" fill="#1d4e89"/>
<line x1="65.5" y1="152.2" x2="65.5" y2="362.0" stroke="#1c1915" stroke-width="1"/>
<rect x="74.0" y="351.0" width="11" height="183.0" fill="#2f7d4a"/>
<line x1="79.5" y1="266.1" x2="79.5" y2="436.0" stroke="#1c1915" stroke-width="1"/>
<rect x="88.0" y="333.3" width="11" height="200.7" fill="#d08c1f"/>
<line x1="93.5" y1="301.4" x2="93.5" y2="365.2" stroke="#1c1915" stroke-width="1"/>
<rect x="102.0" y="533.1" width="11" height="0.9" fill="url(#fprHatch)"/>
<line x1="107.5" y1="532.6" x2="107.5" y2="533.6" stroke="#1c1915" stroke-width="1"/>
<text x="86.5" y="552" text-anchor="end" font-size="11" transform="rotate(-35 86.5 552)">Rules</text>
<rect x="129.0" y="527.0" width="11" height="7.0" fill="#1d4e89"/>
<line x1="134.5" y1="519.5" x2="134.5" y2="534.0" stroke="#1c1915" stroke-width="1"/>
<rect x="143.0" y="331.0" width="11" height="203.0" fill="#2f7d4a"/>
<line x1="148.5" y1="120.7" x2="148.5" y2="534.0" stroke="#1c1915" stroke-width="1"/>
<rect x="157.0" y="520.8" width="11" height="13.2" fill="#d08c1f"/>
<line x1="162.5" y1="506.9" x2="162.5" y2="534.0" stroke="#1c1915" stroke-width="1"/>
<rect x="171.0" y="330.1" width="11" height="203.9" fill="url(#fprHatch)"/>
<line x1="176.5" y1="135.6" x2="176.5" y2="524.6" stroke="#1c1915" stroke-width="1"/>
<text x="155.5" y="552" text-anchor="end" font-size="11" transform="rotate(-35 155.5 552)">Graph</text>
<rect x="198.0" y="319.7" width="11" height="214.3" fill="#1d4e89"/>
<line x1="203.5" y1="192.7" x2="203.5" y2="446.7" stroke="#1c1915" stroke-width="1"/>
<rect x="212.0" y="303.2" width="11" height="230.8" fill="#2f7d4a"/>
<line x1="217.5" y1="188.8" x2="217.5" y2="417.6" stroke="#1c1915" stroke-width="1"/>
<rect x="226.0" y="356.1" width="11" height="177.9" fill="#d08c1f"/>
<line x1="231.5" y1="288.4" x2="231.5" y2="423.7" stroke="#1c1915" stroke-width="1"/>
<rect x="240.0" y="530.8" width="11" height="3.2" fill="url(#fprHatch)"/>
<line x1="245.5" y1="528.3" x2="245.5" y2="533.3" stroke="#1c1915" stroke-width="1"/>
<text x="224.5" y="552" text-anchor="end" font-size="11" transform="rotate(-35 224.5 552)">LogReg</text>
<rect x="267.0" y="313.8" width="11" height="220.2" fill="#1d4e89"/>
<line x1="272.5" y1="136.1" x2="272.5" y2="491.5" stroke="#1c1915" stroke-width="1"/>
<rect x="281.0" y="319.0" width="11" height="215.0" fill="#2f7d4a"/>
<line x1="286.5" y1="262.3" x2="286.5" y2="375.6" stroke="#1c1915" stroke-width="1"/>
<rect x="295.0" y="349.6" width="11" height="184.4" fill="#d08c1f"/>
<line x1="300.5" y1="280.0" x2="300.5" y2="419.2" stroke="#1c1915" stroke-width="1"/>
<rect x="309.0" y="531.4" width="11" height="2.6" fill="url(#fprHatch)"/>
<line x1="314.5" y1="529.1" x2="314.5" y2="533.7" stroke="#1c1915" stroke-width="1"/>
<text x="293.5" y="552" text-anchor="end" font-size="11" transform="rotate(-35 293.5 552)">RF</text>
<rect x="336.0" y="340.4" width="11" height="193.6" fill="#1d4e89"/>
<line x1="341.5" y1="143.3" x2="341.5" y2="534.0" stroke="#1c1915" stroke-width="1"/>
<rect x="350.0" y="316.5" width="11" height="217.5" fill="#2f7d4a"/>
<line x1="355.5" y1="257.4" x2="355.5" y2="375.5" stroke="#1c1915" stroke-width="1"/>
<rect x="364.0" y="366.2" width="11" height="167.8" fill="#d08c1f"/>
<line x1="369.5" y1="268.2" x2="369.5" y2="464.3" stroke="#1c1915" stroke-width="1"/>
<rect x="378.0" y="529.7" width="11" height="4.3" fill="url(#fprHatch)"/>
<line x1="383.5" y1="525.9" x2="383.5" y2="533.6" stroke="#1c1915" stroke-width="1"/>
<text x="362.5" y="552" text-anchor="end" font-size="11" transform="rotate(-35 362.5 552)">XGBoost</text>
<rect x="405.0" y="377.1" width="11" height="156.9" fill="#1d4e89"/>
<line x1="410.5" y1="238.0" x2="410.5" y2="516.2" stroke="#1c1915" stroke-width="1"/>
<rect x="419.0" y="273.5" width="11" height="260.5" fill="#2f7d4a"/>
<line x1="424.5" y1="196.9" x2="424.5" y2="350.0" stroke="#1c1915" stroke-width="1"/>
<rect x="433.0" y="351.2" width="11" height="182.8" fill="#d08c1f"/>
<line x1="438.5" y1="230.9" x2="438.5" y2="471.4" stroke="#1c1915" stroke-width="1"/>
<rect x="447.0" y="527.8" width="11" height="6.2" fill="url(#fprHatch)"/>
<line x1="452.5" y1="523.2" x2="452.5" y2="532.4" stroke="#1c1915" stroke-width="1"/>
<text x="431.5" y="552" text-anchor="end" font-size="11" transform="rotate(-35 431.5 552)">LightGBM</text>
<rect x="474.0" y="331.1" width="11" height="202.9" fill="#1d4e89"/>
<line x1="479.5" y1="221.6" x2="479.5" y2="440.5" stroke="#1c1915" stroke-width="1"/>
<rect x="488.0" y="264.7" width="11" height="269.3" fill="#2f7d4a"/>
<line x1="493.5" y1="136.9" x2="493.5" y2="392.5" stroke="#1c1915" stroke-width="1"/>
<rect x="502.0" y="316.7" width="11" height="217.3" fill="#d08c1f"/>
<line x1="507.5" y1="215.0" x2="507.5" y2="418.4" stroke="#1c1915" stroke-width="1"/>
<rect x="516.0" y="531.2" width="11" height="2.8" fill="url(#fprHatch)"/>
<line x1="521.5" y1="531.1" x2="521.5" y2="531.4" stroke="#1c1915" stroke-width="1"/>
<text x="500.5" y="552" text-anchor="end" font-size="11" transform="rotate(-35 500.5 552)">IsoForest</text>
<rect x="543.0" y="437.4" width="11" height="96.6" fill="#1d4e89"/>
<line x1="548.5" y1="339.2" x2="548.5" y2="534.0" stroke="#1c1915" stroke-width="1"/>
<rect x="557.0" y="316.0" width="11" height="218.0" fill="#2f7d4a"/>
<line x1="562.5" y1="231.7" x2="562.5" y2="400.4" stroke="#1c1915" stroke-width="1"/>
<rect x="571.0" y="414.7" width="11" height="119.3" fill="#d08c1f"/>
<line x1="576.5" y1="319.6" x2="576.5" y2="509.7" stroke="#1c1915" stroke-width="1"/>
<rect x="585.0" y="523.3" width="11" height="10.7" fill="url(#fprHatch)"/>
<line x1="590.5" y1="518.8" x2="590.5" y2="527.7" stroke="#1c1915" stroke-width="1"/>
<text x="569.5" y="552" text-anchor="end" font-size="11" transform="rotate(-35 569.5 552)">Autoenc</text>
<text x="833.0" y="102" text-anchor="middle" font-size="14" font-weight="700">Shop level</text>
<line x1="582.0" y1="534" x2="1076.0" y2="534" stroke="#1c1915" stroke-width="1"/>
<line x1="582.0" y1="534" x2="1076.0" y2="534" stroke="#e4dfd6" stroke-width="1"/>
<text x="574.0" y="538" text-anchor="end" font-size="11">0.0</text>
<line x1="582.0" y1="324.0" x2="1076.0" y2="324.0" stroke="#e4dfd6" stroke-width="1"/>
<text x="574.0" y="328.0" text-anchor="end" font-size="11">0.5</text>
<line x1="582.0" y1="114" x2="1076.0" y2="114" stroke="#e4dfd6" stroke-width="1"/>
<text x="574.0" y="118" text-anchor="end" font-size="11">1.0</text>
<rect x="590.0" y="338.7" width="11" height="195.3" fill="#1d4e89"/>
<line x1="595.5" y1="205.0" x2="595.5" y2="472.3" stroke="#1c1915" stroke-width="1"/>
<rect x="604.0" y="149.0" width="11" height="385.0" fill="#2f7d4a"/>
<line x1="609.5" y1="114.0" x2="609.5" y2="209.6" stroke="#1c1915" stroke-width="1"/>
<rect x="618.0" y="293.2" width="11" height="240.8" fill="#d08c1f"/>
<line x1="623.5" y1="166.1" x2="623.5" y2="420.3" stroke="#1c1915" stroke-width="1"/>
<rect x="632.0" y="508.3" width="11" height="25.7" fill="url(#fprHatch)"/>
<line x1="637.5" y1="493.2" x2="637.5" y2="523.4" stroke="#1c1915" stroke-width="1"/>
<text x="616.5" y="552" text-anchor="end" font-size="11" transform="rotate(-35 616.5 552)">Rules</text>
<rect x="659.0" y="489.2" width="11" height="44.8" fill="#1d4e89"/>
<line x1="664.5" y1="435.0" x2="664.5" y2="534.0" stroke="#1c1915" stroke-width="1"/>
<rect x="673.0" y="324.0" width="11" height="210.0" fill="#2f7d4a"/>
<line x1="678.5" y1="114.0" x2="678.5" y2="534.0" stroke="#1c1915" stroke-width="1"/>
<rect x="687.0" y="469.0" width="11" height="65.0" fill="#d08c1f"/>
<line x1="692.5" y1="398.4" x2="692.5" y2="534.0" stroke="#1c1915" stroke-width="1"/>
<rect x="701.0" y="371.9" width="11" height="162.1" fill="url(#fprHatch)"/>
<line x1="706.5" y1="147.8" x2="706.5" y2="534.0" stroke="#1c1915" stroke-width="1"/>
<text x="685.5" y="552" text-anchor="end" font-size="11" transform="rotate(-35 685.5 552)">Graph</text>
<rect x="728.0" y="411.0" width="11" height="123.0" fill="#1d4e89"/>
<line x1="733.5" y1="322.5" x2="733.5" y2="499.5" stroke="#1c1915" stroke-width="1"/>
<rect x="742.0" y="149.0" width="11" height="385.0" fill="#2f7d4a"/>
<line x1="747.5" y1="114.0" x2="747.5" y2="209.6" stroke="#1c1915" stroke-width="1"/>
<rect x="756.0" y="364.3" width="11" height="169.7" fill="#d08c1f"/>
<line x1="761.5" y1="251.8" x2="761.5" y2="476.8" stroke="#1c1915" stroke-width="1"/>
<rect x="770.0" y="459.6" width="11" height="74.4" fill="url(#fprHatch)"/>
<line x1="775.5" y1="401.9" x2="775.5" y2="517.3" stroke="#1c1915" stroke-width="1"/>
<text x="754.5" y="552" text-anchor="end" font-size="11" transform="rotate(-35 754.5 552)">LogReg</text>
<rect x="797.0" y="348.2" width="11" height="185.8" fill="#1d4e89"/>
<line x1="802.5" y1="142.2" x2="802.5" y2="534.0" stroke="#1c1915" stroke-width="1"/>
<rect x="811.0" y="114.0" width="11" height="420.0" fill="#2f7d4a"/>
<line x1="816.5" y1="114.0" x2="816.5" y2="114.0" stroke="#1c1915" stroke-width="1"/>
<rect x="825.0" y="318.0" width="11" height="216.0" fill="#d08c1f"/>
<line x1="830.5" y1="133.3" x2="830.5" y2="502.7" stroke="#1c1915" stroke-width="1"/>
<rect x="839.0" y="472.8" width="11" height="61.2" fill="url(#fprHatch)"/>
<line x1="844.5" y1="419.7" x2="844.5" y2="525.9" stroke="#1c1915" stroke-width="1"/>
<text x="823.5" y="552" text-anchor="end" font-size="11" transform="rotate(-35 823.5 552)">RF</text>
<rect x="866.0" y="365.5" width="11" height="168.5" fill="#1d4e89"/>
<line x1="871.5" y1="146.8" x2="871.5" y2="534.0" stroke="#1c1915" stroke-width="1"/>
<rect x="880.0" y="114.0" width="11" height="420.0" fill="#2f7d4a"/>
<line x1="885.5" y1="114.0" x2="885.5" y2="114.0" stroke="#1c1915" stroke-width="1"/>
<rect x="894.0" y="343.1" width="11" height="190.9" fill="#d08c1f"/>
<line x1="899.5" y1="142.1" x2="899.5" y2="534.0" stroke="#1c1915" stroke-width="1"/>
<rect x="908.0" y="431.5" width="11" height="102.5" fill="url(#fprHatch)"/>
<line x1="913.5" y1="338.3" x2="913.5" y2="524.7" stroke="#1c1915" stroke-width="1"/>
<text x="892.5" y="552" text-anchor="end" font-size="11" transform="rotate(-35 892.5 552)">XGBoost</text>
<rect x="935.0" y="456.3" width="11" height="77.7" fill="#1d4e89"/>
<line x1="940.5" y1="390.2" x2="940.5" y2="522.3" stroke="#1c1915" stroke-width="1"/>
<rect x="949.0" y="114.0" width="11" height="420.0" fill="#2f7d4a"/>
<line x1="954.5" y1="114.0" x2="954.5" y2="114.0" stroke="#1c1915" stroke-width="1"/>
<rect x="963.0" y="410.7" width="11" height="123.3" fill="#d08c1f"/>
<line x1="968.5" y1="321.1" x2="968.5" y2="500.3" stroke="#1c1915" stroke-width="1"/>
<rect x="977.0" y="405.7" width="11" height="128.3" fill="url(#fprHatch)"/>
<line x1="982.5" y1="321.8" x2="982.5" y2="489.5" stroke="#1c1915" stroke-width="1"/>
<text x="961.5" y="552" text-anchor="end" font-size="11" transform="rotate(-35 961.5 552)">LightGBM</text>
<rect x="1004.0" y="411.8" width="11" height="122.2" fill="#1d4e89"/>
<line x1="1009.5" y1="327.6" x2="1009.5" y2="496.1" stroke="#1c1915" stroke-width="1"/>
<rect x="1018.0" y="149.0" width="11" height="385.0" fill="#2f7d4a"/>
<line x1="1023.5" y1="114.0" x2="1023.5" y2="209.6" stroke="#1c1915" stroke-width="1"/>
<rect x="1032.0" y="359.2" width="11" height="174.8" fill="#d08c1f"/>
<line x1="1037.5" y1="257.2" x2="1037.5" y2="461.2" stroke="#1c1915" stroke-width="1"/>
<rect x="1046.0" y="479.3" width="11" height="54.7" fill="url(#fprHatch)"/>
<line x1="1051.5" y1="461.6" x2="1051.5" y2="497.0" stroke="#1c1915" stroke-width="1"/>
<text x="1030.5" y="552" text-anchor="end" font-size="11" transform="rotate(-35 1030.5 552)">IsoForest</text>
<rect x="1073.0" y="478.7" width="11" height="55.3" fill="#1d4e89"/>
<line x1="1078.5" y1="436.5" x2="1078.5" y2="521.0" stroke="#1c1915" stroke-width="1"/>
<rect x="1087.0" y="114.0" width="11" height="420.0" fill="#2f7d4a"/>
<line x1="1092.5" y1="114.0" x2="1092.5" y2="114.0" stroke="#1c1915" stroke-width="1"/>
<rect x="1101.0" y="440.2" width="11" height="93.8" fill="#d08c1f"/>
<line x1="1106.5" y1="374.2" x2="1106.5" y2="506.2" stroke="#1c1915" stroke-width="1"/>
<rect x="1115.0" y="354.1" width="11" height="179.9" fill="url(#fprHatch)"/>
<line x1="1120.5" y1="294.3" x2="1120.5" y2="413.9" stroke="#1c1915" stroke-width="1"/>
<text x="1099.5" y="552" text-anchor="end" font-size="11" transform="rotate(-35 1099.5 552)">Autoenc</text>
<text x="550.0" y="604" text-anchor="middle" font-size="11" fill="#4a453e">Synthetic data only. Hatched bars are the false-positive rate; taller is worse.</text></svg>